<svg width="86" height="86" viewBox="0 0 86 86" fill="none" xmlns="http://www.w3.org/2000/svg">
<g clip-path="url(#clip0)">
<path d="M39.8668 38.5075C41.1101 37.7905 42.6412 37.7905 43.8845 38.5075L70.6184 53.9249C71.8635 54.643 72.6306 55.971 72.6306 57.4083V65.3541C72.6306 66.7914 71.8635 68.1194 70.6184 68.8375L43.8845 84.2549C42.6412 84.9719 41.1101 84.9719 39.8668 84.2549L13.133 68.8375C11.8879 68.1194 11.1207 66.7914 11.1207 65.3541V57.4083C11.1207 55.971 11.8879 54.643 13.133 53.9249L39.8668 38.5075Z" fill="#E8E8FF"/>
<path d="M44.7866 34.2982L58.7787 42.36C60.2185 43.1897 60.7008 43.4859 61.0252 43.886L61.8061 43.2529L61.0252 43.886C61.2247 44.1321 61.3842 44.408 61.4978 44.7036C61.6825 45.1845 61.6984 45.7503 61.6984 47.412V58.3291C61.6984 59.9893 61.6826 60.5546 61.4981 61.0351C61.3847 61.3306 61.2254 61.6063 61.0263 61.8523C60.7023 62.2523 60.2207 62.5486 58.7829 63.3787L44.7909 71.4563C43.3532 72.2862 42.8559 72.5551 42.3475 72.6356C42.035 72.6851 41.7166 72.6851 41.404 72.6356C40.8957 72.5551 40.3983 72.2862 38.9607 71.4563L24.9686 63.3787C23.5308 62.5486 23.0492 62.2523 22.7253 61.8523C22.5261 61.6063 22.3669 61.3306 22.2534 61.0351C22.069 60.5546 22.0531 59.9893 22.0531 58.3291V47.412C22.0531 45.7503 22.069 45.1845 22.2538 44.7036C22.3674 44.408 22.5268 44.1321 22.7263 43.886L21.9487 43.2556L22.7263 43.886C23.0507 43.4859 23.533 43.1897 24.9729 42.36L38.965 34.2982C40.4006 33.4711 40.8973 33.2031 41.4048 33.1229C41.7168 33.0736 42.0347 33.0736 42.3467 33.1229C42.8543 33.2031 43.3509 33.4711 44.7866 34.2982Z" fill="#7678ED" stroke="#3D348B" stroke-width="2.01054"/>
<mask id="mask0" mask-type="alpha" maskUnits="userSpaceOnUse" x="21" y="32" width="42" height="42">
<path d="M45.2884 33.4272L59.2805 41.489C60.6511 42.2787 61.3364 42.6735 61.8061 43.2529C62.0721 43.581 62.2847 43.9489 62.4362 44.3431C62.7037 45.0394 62.7037 45.8303 62.7037 47.412V58.3291C62.7037 59.9094 62.7037 60.6996 62.4366 61.3954C62.2854 61.7893 62.0731 62.157 61.8075 62.4849C61.3385 63.0641 60.6542 63.4592 59.2855 64.2493L45.2935 72.3269C43.925 73.1169 43.2408 73.5119 42.5048 73.6285C42.088 73.6945 41.6635 73.6945 41.2468 73.6285C40.5107 73.5119 39.8265 73.1169 38.4581 72.3269L24.466 64.2493C23.0974 63.4592 22.4131 63.0641 21.944 62.4849C21.6785 62.157 21.4662 61.7893 21.3149 61.3954C21.0479 60.6996 21.0479 59.9094 21.0479 58.3291V47.412C21.0479 45.8303 21.0479 45.0394 21.3154 44.3431C21.4668 43.9489 21.6795 43.581 21.9454 43.2529C22.4152 42.6735 23.1005 42.2787 24.471 41.489L38.4631 33.4272C39.8297 32.6398 40.5129 32.2462 41.2478 32.13C41.6639 32.0642 42.0877 32.0642 42.5037 32.13C43.2386 32.2462 43.9219 32.6398 45.2884 33.4272Z" fill="#3D348B"/>
</mask>
<g mask="url(#mask0)">
<rect x="41.97" y="31.3981" width="24.2521" height="46.9963" fill="#3D348B"/>
</g>
<mask id="mask1" mask-type="alpha" maskUnits="userSpaceOnUse" x="18" y="39" width="55" height="26">
<rect x="18.4718" y="39.1888" width="54.1589" height="25.3202" fill="#C4C4C4"/>
</mask>
<g mask="url(#mask1)">
<path d="M37.9604 25.7715L37.9604 25.7715L37.9449 25.7804L37.9449 25.7804L26.1674 32.568C26.1126 32.5996 26.0585 32.6307 26.0052 32.6614C24.792 33.3599 23.9523 33.8433 23.3633 34.5699C23.0309 34.98 22.7652 35.4398 22.5759 35.9325C22.2404 36.8057 22.2409 37.7746 22.2415 39.1745C22.2415 39.236 22.2416 39.2984 22.2416 39.3616V48.2976C22.2416 48.3608 22.2415 48.4231 22.2415 48.4846C22.2409 49.8831 22.2404 50.8512 22.5754 51.7237C22.7644 52.2161 23.0297 52.6757 23.3615 53.0856C23.9497 53.8119 24.7882 54.2956 25.9996 54.9944C26.0529 55.0252 26.1069 55.0563 26.1616 55.0879L37.9547 61.8978C38.0094 61.9294 38.0634 61.9606 38.1166 61.9914C39.3277 62.6915 40.166 63.176 41.0893 63.3223C41.6103 63.4048 42.1411 63.4048 42.6621 63.3223C43.5855 63.176 44.4237 62.6915 45.6348 61.9914C45.6881 61.9606 45.742 61.9294 45.7968 61.8978L57.5898 55.0879C57.6445 55.0563 57.6985 55.0252 57.7518 54.9945C58.9632 54.2956 59.8017 53.812 60.3899 53.0856C60.7218 52.6757 60.9871 52.2161 61.1761 51.7237C61.511 50.8512 61.5106 49.8832 61.5099 48.4846C61.5099 48.4231 61.5099 48.3608 61.5099 48.2976V39.3616C61.5099 39.2984 61.5099 39.236 61.5099 39.1744C61.5106 37.7746 61.511 36.8057 61.1755 35.9325C60.9862 35.4398 60.7205 34.98 60.3881 34.5699C59.7991 33.8433 58.9594 33.3598 57.7462 32.6614C57.6929 32.6307 57.6388 32.5996 57.5841 32.568L45.791 25.7715C45.7364 25.74 45.6825 25.7089 45.6293 25.6782C44.4198 24.9805 43.5827 24.4975 42.6609 24.3517C42.1407 24.2694 41.6108 24.2694 41.0906 24.3517C40.1687 24.4975 39.3316 24.9805 38.1221 25.6782C38.069 25.7089 38.0151 25.74 37.9604 25.7715Z" fill="url(#paint0_linear)" stroke="#3D348B" stroke-width="2.01054"/>
</g>
<rect y="1.0052" width="32.0868" height="32.0868" rx="3.01581" transform="matrix(0.866044 0.499967 -0.866044 0.499967 43.2175 24.8459)" fill="#7678ED" stroke="#3D348B" stroke-width="2.01054"/>
<rect width="20.9662" height="20.9662" rx="3.01581" transform="matrix(0.866044 0.499967 -0.866044 0.499967 42.3469 30.9084)" fill="#3D348B"/>
<mask id="mask2" mask-type="alpha" maskUnits="userSpaceOnUse" x="21" y="0" width="59" height="51">
<path fill-rule="evenodd" clip-rule="evenodd" d="M79.4162 0.154053H21.9902V38.6056H29.0138L26.8011 39.8829C25.3587 40.7157 25.3587 42.0658 26.8012 42.8986L39.7352 50.3654C41.1776 51.1981 43.5163 51.1981 44.9588 50.3654L57.8928 42.8986C59.3353 42.0658 59.3353 40.7157 57.8928 39.8829L55.6802 38.6056H79.4162V0.154053Z" fill="#C4C4C4"/>
</mask>
<g mask="url(#mask2)">
<path d="M59.7732 12.4586C44.8524 9.5066 43.3697 32.2167 45.2482 51.1697L50.9509 48.3854C49.9848 34.8869 55.0657 26.6594 57.727 24.2329L58.5656 25.0715C73.5267 39.4624 78.4243 16.1485 59.7732 12.4586Z" fill="#F0F0FF"/>
<path d="M58.5656 25.0715C73.5267 39.4624 78.4243 16.1485 59.7732 12.4586C44.8524 9.5066 43.3697 32.2167 45.2482 51.1697L50.9509 48.3854C49.9848 34.8869 55.0657 26.6594 57.727 24.2329L58.5656 25.0715ZM58.5656 25.0715C55.5331 22.0391 54.3054 19.6037 54.0706 18.7651" stroke="#3D348B" stroke-width="2.01054" stroke-linecap="round"/>
</g>
<mask id="mask3" mask-type="alpha" maskUnits="userSpaceOnUse" x="21" y="0" width="59" height="51">
<path fill-rule="evenodd" clip-rule="evenodd" d="M79.4162 0.154053H21.9902V38.6056H29.0138L26.8011 39.8829C25.3587 40.7157 25.3587 42.0658 26.8012 42.8986L39.7352 50.3654C41.1776 51.1981 43.5163 51.1981 44.9588 50.3654L57.8928 42.8986C59.3353 42.0658 59.3353 40.7157 57.8928 39.8829L55.6802 38.6056H79.4162V0.154053Z" fill="#C4C4C4"/>
</mask>
<g mask="url(#mask3)">
<path d="M29.5826 2.42861C38.3311 5.48793 40.0934 36.4657 39.8809 51.5722L34.2453 48.9222C33.8092 44.1588 31.9643 38.8922 30.3206 35.068C21.3975 15.6454 26.1274 1.1539 29.5826 2.42861Z" fill="#F0F0FF" stroke="#3D348B" stroke-width="2.01054" stroke-linecap="round"/>
</g>
<mask id="mask4" mask-type="alpha" maskUnits="userSpaceOnUse" x="44" y="12" width="28" height="40">
<path d="M59.7732 12.4586C44.8524 9.5066 43.3697 32.2167 45.2482 51.1697L50.9509 48.3854C49.9848 34.8869 55.0657 26.6594 57.727 24.2329L58.5656 25.0715C73.5267 39.4624 78.4243 16.1485 59.7732 12.4586Z" fill="#C4C4C4"/>
</mask>
<g mask="url(#mask4)">
<path d="M50.0749 46.2393C47.034 38.4736 50.9021 24.7203 53.2164 18.8143L57.6772 23.9977C56.4102 34.6473 53.2164 44.6372 50.0749 46.2393Z" fill="#CDCDFF"/>
</g>
<mask id="mask5" mask-type="alpha" maskUnits="userSpaceOnUse" x="21" y="0" width="59" height="51">
<path fill-rule="evenodd" clip-rule="evenodd" d="M79.4162 0.154053H21.9902V38.6056H29.0138L26.8011 39.8829C25.3587 40.7157 25.3587 42.0658 26.8012 42.8986L39.7352 50.3654C41.1776 51.1981 43.5163 51.1981 44.9588 50.3654L57.8928 42.8986C59.3353 42.0658 59.3353 40.7157 57.8928 39.8829L55.6802 38.6056H79.4162V0.154053Z" fill="#C4C4C4"/>
</mask>
<g mask="url(#mask5)">
<path d="M58.5656 25.0715C73.5267 39.4624 78.4243 16.1485 59.7732 12.4586C44.8524 9.5066 43.3697 32.2167 45.2482 51.1697L50.9509 48.3854C49.9848 34.8869 55.0657 26.6594 57.727 24.2329L58.5656 25.0715ZM58.5656 25.0715C55.5331 22.0391 54.3054 19.6037 54.0706 18.7651" stroke="url(#paint1_linear)" stroke-width="2.01054" stroke-linecap="round"/>
</g>
<mask id="mask6" mask-type="alpha" maskUnits="userSpaceOnUse" x="24" y="1" width="17" height="53">
<path d="M29.5826 2.42849C38.3311 5.48781 40.0934 36.4656 39.8809 51.5721L34.2453 48.9221C33.8092 44.1586 31.9643 38.8921 30.3206 35.0679C21.3975 15.6453 26.1274 1.15378 29.5826 2.42849Z" fill="#F0F0FF" stroke="#3D348B" stroke-width="2.01054" stroke-linecap="round"/>
</mask>
<g mask="url(#mask6)">
<path d="M34.2734 30.8775C38.2933 40.1554 36.0013 43.7261 39.8653 50.0405C42.2528 42.1554 38.7343 14.5733 35.6243 11.1805C32.5142 7.78776 26.8282 13.6937 34.2734 30.8775Z" fill="#CDCDFF"/>
</g>
<mask id="mask7" mask-type="alpha" maskUnits="userSpaceOnUse" x="21" y="0" width="59" height="51">
<path fill-rule="evenodd" clip-rule="evenodd" d="M79.4162 0.154053H21.9902V38.6056H29.0138L26.8011 39.8829C25.3587 40.7157 25.3587 42.0658 26.8012 42.8986L39.7352 50.3654C41.1776 51.1981 43.5163 51.1981 44.9588 50.3654L57.8928 42.8986C59.3353 42.0658 59.3353 40.7157 57.8928 39.8829L55.6802 38.6056H79.4162V0.154053Z" fill="#C4C4C4"/>
</mask>
<g mask="url(#mask7)">
<path d="M29.5826 2.42861C38.3311 5.48793 40.0934 36.4657 39.8809 51.5722L34.2453 48.9222C33.8092 44.1588 31.9643 38.8922 30.3206 35.068C21.3975 15.6454 26.1274 1.1539 29.5826 2.42861Z" stroke="url(#paint2_linear)" stroke-width="2.01054" stroke-linecap="round"/>
</g>
<path d="M78.6581 13.6165C79.2677 12.7748 80.5943 13.1303 80.7014 14.164L80.985 16.9026C81.0182 17.223 81.1863 17.5141 81.4471 17.703L83.677 19.318C84.5187 19.9276 84.1633 21.2542 83.1295 21.3613L80.3909 21.6449C80.0705 21.6781 79.7794 21.8462 79.5905 22.107L77.9755 24.3369C77.3659 25.1786 76.0393 24.8232 75.9323 23.7894L75.6486 21.0508C75.6154 20.7304 75.4474 20.4393 75.1865 20.2504L72.9566 18.6354C72.1149 18.0259 72.4704 16.6992 73.5041 16.5922L76.2427 16.3085C76.5631 16.2753 76.8542 16.1073 77.0431 15.8464L78.6581 13.6165Z" fill="#F8B902"/>
<path d="M10.4642 46.128L10.6357 47.784C10.691 48.3177 10.9709 48.8026 11.4055 49.1173L12.7539 50.0939C13.0351 50.2975 12.9163 50.7408 12.5709 50.7766L10.915 50.9481C10.3812 51.0034 9.89634 51.2833 9.58162 51.7179L8.60508 53.0663C8.4014 53.3475 7.95815 53.2287 7.92237 52.8833L7.75085 51.2273C7.69557 50.6936 7.41561 50.2087 6.98105 49.894L5.63268 48.9175C5.35144 48.7138 5.47021 48.2705 5.81561 48.2348L7.4716 48.0632C8.00531 48.008 8.49021 47.728 8.80494 47.2934L9.78148 45.9451C9.98516 45.6638 10.4284 45.7826 10.4642 46.128Z" stroke="#F35B05" stroke-width="1.5079"/>
<path d="M12.5954 32.5221C12.5099 31.9875 13.1294 31.6298 13.5496 31.9711L14.2227 32.5179C14.353 32.6237 14.5221 32.669 14.6877 32.6425L15.544 32.5055C16.0786 32.4201 16.4363 33.0396 16.095 33.4598L15.5482 34.1329C15.4424 34.2631 15.3971 34.4322 15.4236 34.5979L15.5606 35.4542C15.646 35.9887 15.0265 36.3464 14.6063 36.0051L13.9332 35.4583C13.803 35.3526 13.6339 35.3073 13.4682 35.3337L12.6119 35.4707C12.0774 35.5562 11.7197 34.9367 12.061 34.5165L12.6078 33.8434C12.7135 33.7131 12.7588 33.544 12.7324 33.3784L12.5954 32.5221Z" fill="#F28802"/>
<path d="M62.2332 3.15254C62.5337 2.73766 63.1876 2.91287 63.2404 3.42241L63.3249 4.23867C63.3413 4.39659 63.4241 4.54007 63.5527 4.63319L64.2173 5.11454C64.6322 5.41502 64.457 6.06892 63.9475 6.1217L63.1312 6.20624C62.9733 6.2226 62.8298 6.30543 62.7367 6.43402L62.2553 7.09865C61.9548 7.51354 61.3009 7.33832 61.2482 6.82878L61.1636 6.01252C61.1473 5.8546 61.0644 5.71112 60.9358 5.618L60.2712 5.13665C59.8563 4.83618 60.0315 4.18227 60.5411 4.1295L61.3573 4.04495C61.5153 4.02859 61.6587 3.94576 61.7519 3.81718L62.2332 3.15254Z" fill="#F28802"/>
</g>
<defs>
<linearGradient id="paint0_linear" x1="23.2468" y1="43.8382" x2="60.5046" y2="43.8382" gradientUnits="userSpaceOnUse">
<stop offset="0.0677083" stop-color="#F18701"/>
<stop offset="0.0885417" stop-color="#F7B801"/>
<stop offset="0.109375" stop-color="#F7B801"/>
<stop offset="0.432292" stop-color="#F7B801"/>
<stop offset="0.458333" stop-color="#F18701"/>
<stop offset="0.536458" stop-color="#F17D02"/>
<stop offset="0.557292" stop-color="#F35B04"/>
<stop offset="0.916667" stop-color="#F35B04"/>
<stop offset="0.9375" stop-color="#7678ED"/>
</linearGradient>
<linearGradient id="paint1_linear" x1="58.2397" y1="12.198" x2="58.2397" y2="51.1697" gradientUnits="userSpaceOnUse">
<stop stop-color="#4C3FBF"/>
<stop offset="1" stop-color="#3D348B"/>
</linearGradient>
<linearGradient id="paint2_linear" x1="32.5466" y1="2.35059" x2="32.5466" y2="51.5722" gradientUnits="userSpaceOnUse">
<stop stop-color="#4C3FBF"/>
<stop offset="1" stop-color="#3D348B"/>
</linearGradient>
<clipPath id="clip0">
<rect width="86" height="86" fill="white"/>
</clipPath>
</defs>
</svg>
